<svg id="Layer_1" data-name="Layer 1" xmlns="http://www.w3.org/2000/svg" viewBox="0 0 122.89 118.73"><defs><style>.cls-1{fill:#fff;}</style></defs><path class="cls-1" d="M29.22,56.55a88.09,88.09,0,0,0,13,18.24A74.06,74.06,0,0,0,62.86,90a2.15,2.15,0,0,0,1.78.1,7.66,7.66,0,0,0,2.48-1.81,28.15,28.15,0,0,0,2.26-2.77c3.31-4.36,7.42-9.77,13.21-7.07.13.06.23.13.35.19l19.33,11.11c.06,0,.13.1.19.13a8.72,8.72,0,0,1,3.63,7.52,20.35,20.35,0,0,1-2.83,9.58A19.6,19.6,0,0,1,94,115.2a42.29,42.29,0,0,1-11.46,3.12A38.82,38.82,0,0,1,65,116.86a77.37,77.37,0,0,1-17.6-8.5l-.46-.29c-2.86-1.78-6-3.7-9-5.95-11.1-8.38-22.4-20.47-29.76-33.78C2,57.16-1.34,45.1.5,33.6c1-6.3,3.72-12,8.44-15.82,4.11-3.31,9.64-5.13,16.81-4.49a2.42,2.42,0,0,1,1.94,1.24L40.08,35.47a6.56,6.56,0,0,1,1.05,7,13.62,13.62,0,0,1-4.74,5.31c-.67.57-1.46,1.15-2.29,1.75-2.77,2-5.92,4.33-4.84,7.07l0-.06Zm44.13-49a3.76,3.76,0,0,1-1.42-.4,3.84,3.84,0,0,1-1.16-.91A3.92,3.92,0,0,1,70,5a3.93,3.93,0,0,1-.16-1.46V3.43a3.63,3.63,0,0,1,.39-1.36l0-.07A3.54,3.54,0,0,1,71.19.92,3.82,3.82,0,0,1,72.48.19,3.75,3.75,0,0,1,73.9,0H74a64.37,64.37,0,0,1,9.92,1.55,55.93,55.93,0,0,1,9.16,3.05,50,50,0,0,1,8.2,4.52,47.06,47.06,0,0,1,12.83,13.05,51.43,51.43,0,0,1,4.4,8.28,56.59,56.59,0,0,1,2.92,9.18,65.32,65.32,0,0,1,1.45,10V50a4,4,0,0,1-.23,1.33,3.63,3.63,0,0,1-.71,1.2,3.85,3.85,0,0,1-1.1.86,3.78,3.78,0,0,1-1.31.4l-.2,0h-.19a3.53,3.53,0,0,1-1.34-.23,3.79,3.79,0,0,1-2.1-1.88,3.79,3.79,0,0,1-.38-1.42,57.19,57.19,0,0,0-1.26-8.8,48.33,48.33,0,0,0-2.52-8,42.25,42.25,0,0,0-3.72-7.06A40.16,40.16,0,0,0,103,20.32a39.63,39.63,0,0,0-6-5,41.9,41.9,0,0,0-7-3.84l0,0a47.89,47.89,0,0,0-7.88-2.61,59.07,59.07,0,0,0-8.7-1.31ZM65,43.22a3.87,3.87,0,0,1-1.41-.43,3.69,3.69,0,0,1-1.13-.94,4,4,0,0,1-.67-1.23,3.69,3.69,0,0,1-.18-1.33c0-.13,0-.23,0-.35a3.82,3.82,0,0,1,.45-1.32,3.68,3.68,0,0,1,.9-1.06,3.79,3.79,0,0,1,2.57-.85l.35,0a30.85,30.85,0,0,1,4.3.77,27,27,0,0,1,4,1.36l0,0a22.74,22.74,0,0,1,3.57,2,21.31,21.31,0,0,1,5.69,5.67,22.53,22.53,0,0,1,2,3.58,25.89,25.89,0,0,1,1.37,4,30.34,30.34,0,0,1,.76,4.37,4,4,0,0,1-.13,1.47v0a3.92,3.92,0,0,1-.67,1.26v0a3.78,3.78,0,0,1-1.13.93,3.69,3.69,0,0,1-1.41.43h0a4,4,0,0,1-1.42-.14,3.7,3.7,0,0,1-1.3-.69h0a3.78,3.78,0,0,1-1.37-2.54v0a21.58,21.58,0,0,0-.54-3.12,17.6,17.6,0,0,0-1-2.82,15.14,15.14,0,0,0-1.32-2.42,14.07,14.07,0,0,0-1.69-2,13.48,13.48,0,0,0-2.06-1.68,16,16,0,0,0-2.46-1.33l0,0a18,18,0,0,0-2.8-.94A19.82,19.82,0,0,0,65,43.22ZM69,26h-.1l-.13,0a3.71,3.71,0,0,1-1.3-.39,4,4,0,0,1-1.1-.85h0a3.65,3.65,0,0,1-.73-1.23,3.92,3.92,0,0,1-.22-1.38V22l0-.16a3.73,3.73,0,0,1,.39-1.29A3.78,3.78,0,0,1,68,18.66a3.75,3.75,0,0,1,1.46-.2,51,51,0,0,1,7.58,1,40,40,0,0,1,6.78,2.06,34.09,34.09,0,0,1,6,3.14,30.2,30.2,0,0,1,9,9.32,33.57,33.57,0,0,1,2.94,6,40.7,40.7,0,0,1,1.84,6.84,51.85,51.85,0,0,1,.77,7.62v.14a3.57,3.57,0,0,1-.27,1.38,4,4,0,0,1-.76,1.2,3.54,3.54,0,0,1-1.2.85,3.75,3.75,0,0,1-1.43.33h-.17a3.78,3.78,0,0,1-2.54-1,3.75,3.75,0,0,1-1.19-2.64,43.22,43.22,0,0,0-.63-6.34,33.41,33.41,0,0,0-1.47-5.6A26.35,26.35,0,0,0,92.42,38a22.51,22.51,0,0,0-6.9-7.15,26.4,26.4,0,0,0-4.67-2.43l0,0a33.92,33.92,0,0,0-5.47-1.63A42.92,42.92,0,0,0,69.09,26Z"/></svg>