<svg id="Layer_1" data-name="Layer 1" xmlns="http://www.w3.org/2000/svg" viewBox="0 0 800 800"><defs><style>.cls-1{fill:none;}</style></defs><g id="Development"><g id="code_fill" data-name="code fill"><path id="MingCute" class="cls-1" d="M800,0V800H0V0ZM419.78,775.26l-.38.06L417,776.5l-.63.12h0l-.51-.12-2.37-1.18a.69.69,0,0,0-.78.18l-.14.36L412,790.1l.17.68.36.41,3.46,2.47.49.13h0l.39-.13,3.46-2.47.42-.53h0l.11-.56-.57-14.24a.72.72,0,0,0-.54-.6Zm8.83-3.75-.46.07L422,774.66l-.33.34h0l-.09.37.6,14.32.16.42h0l.28.24,6.7,3.09a.84.84,0,0,0,.95-.27l.13-.46-1.13-20.49a.86.86,0,0,0-.65-.71Zm-23.84.07a.77.77,0,0,0-.92.17l-.19.47-1.13,20.49a.75.75,0,0,0,.56.78l.52,0,6.7-3.09.31-.27h0l.13-.39.6-14.32-.11-.42h0l-.31-.29Z"/><path id="形状" d="M449.2,121a50,50,0,0,1,40.56,57.92l-81,459.58a50,50,0,0,1-98.48-17.37l81-459.58A50,50,0,0,1,449.2,121ZM252,223.22a50,50,0,0,1,0,70.71L146,400,252,506.06a50,50,0,0,1-70.71,70.71L39.89,435.35a50,50,0,0,1,0-70.71L181.31,223.22A50,50,0,0,1,252,223.22Zm366.67,0L760.11,364.64a50,50,0,0,1,0,70.71L618.69,576.77A50,50,0,0,1,548,506.06L654,400,548,293.93a50,50,0,0,1,70.71-70.71Z"/></g></g></svg>