<svg id="Layer_1" data-name="Layer 1" xmlns="http://www.w3.org/2000/svg" viewBox="0 0 119.45 122.89"><defs><style>.cls-1{fill:#fff;}</style></defs><path class="cls-1" d="M0,58.69V53.57L39.82,88.39.52,119.19A6.15,6.15,0,0,1,0,116.72v-58Zm82-6a24,24,0,0,1-1,6.19,15.17,15.17,0,0,1-2.48,4.85,10.72,10.72,0,0,1-3.83,3.18A11.07,11.07,0,0,1,69.83,68a8.06,8.06,0,0,1-2.13-.25A7.3,7.3,0,0,1,65.79,67a6.64,6.64,0,0,1-1.58-1.21,6.11,6.11,0,0,1-.69-.82,8.52,8.52,0,0,1-6.69,2.92,7.68,7.68,0,0,1-2.52-.39,7.4,7.4,0,0,1-2.19-1.19h0a7.66,7.66,0,0,1-1.71-1.88,10,10,0,0,1-1.19-2.52h0a15.81,15.81,0,0,1-.55-6.27h0a23.13,23.13,0,0,1,1.46-5.95A16.65,16.65,0,0,1,53,45a12.09,12.09,0,0,1,4-3.09,11.28,11.28,0,0,1,4.79-1,14.64,14.64,0,0,1,3.67.45,11.5,11.5,0,0,1,3.17,1.39l1.63,1.09a.67.67,0,0,1,.28.59L69.11,59.37a3.28,3.28,0,0,0,.29,2.22,1.75,1.75,0,0,0,1.54.61,2.62,2.62,0,0,0,1.61-.56A5.59,5.59,0,0,0,74,59.75a11.71,11.71,0,0,0,1.09-3,20.57,20.57,0,0,0,.47-3.83,24,24,0,0,0-.65-7.4,13.63,13.63,0,0,0-2.76-5.39,11.84,11.84,0,0,0-4.67-3.32A17.48,17.48,0,0,0,61,35.69a16.35,16.35,0,0,0-4.45.6,14.89,14.89,0,0,0-3.91,1.79A15.45,15.45,0,0,0,49.32,41a18.73,18.73,0,0,0-2.54,3.93,23.88,23.88,0,0,0-1.69,4.76,30.07,30.07,0,0,0-.74,5.42h0a25.89,25.89,0,0,0,.65,7.7,13.85,13.85,0,0,0,2.77,5.57,11.66,11.66,0,0,0,4.76,3.38,18.17,18.17,0,0,0,6.77,1.15,19.55,19.55,0,0,0,2.16-.12c.74-.08,1.51-.21,2.28-.37s1.48-.33,2.12-.52a12.74,12.74,0,0,0,1.7-.61.65.65,0,0,1,.84.34h0a.48.48,0,0,1,0,.17l1,4.2a.67.67,0,0,1-.28.68,10.1,10.1,0,0,1-2,1,16.39,16.39,0,0,1-2.47.76,23,23,0,0,1-2.73.49,21,21,0,0,1-2.75.16A24.62,24.62,0,0,1,47,76.33a16.67,16.67,0,0,1-4.39-3.45,17.94,17.94,0,0,1-3.09-4.79h0a24.18,24.18,0,0,1-1.73-6A35.39,35.39,0,0,1,37.41,55a32.55,32.55,0,0,1,1-6.86A28.07,28.07,0,0,1,40.77,42a23.38,23.38,0,0,1,3.6-5,21.84,21.84,0,0,1,4.74-3.82,22.79,22.79,0,0,1,5.65-2.37A24.88,24.88,0,0,1,61.07,30a22.93,22.93,0,0,1,11.5,2.77,17.63,17.63,0,0,1,4.28,3.4,18.54,18.54,0,0,1,3,4.59,22.64,22.64,0,0,1,1.76,5.6A28.18,28.18,0,0,1,82,52.72Zm-25.7,3a16.25,16.25,0,0,0,0,2.79,5.66,5.66,0,0,0,.48,1.9,2.38,2.38,0,0,0,.83,1,2,2,0,0,0,1.19.32,2,2,0,0,0,.89-.2,3,3,0,0,0,.87-.67,5.39,5.39,0,0,0,.83-1.17,9.69,9.69,0,0,0,.69-1.58l1-11h-.91a5.13,5.13,0,0,0-2.25.49A4.59,4.59,0,0,0,58.27,49a9.74,9.74,0,0,0-1.2,2.7,23.65,23.65,0,0,0-.73,4ZM.15,43.48C1,40.15,5.72,38,8.34,36.15V21.86a6,6,0,0,1,6-6H36.81L58.26.58A3.26,3.26,0,0,1,62,.6L83.08,15.86h22a6,6,0,0,1,6,6V36.11c2.82,2,8.34,4.72,8.34,8.49v.15L105.11,56.84v-35H14.34v34Zm119.3,11.31v61.93a6.12,6.12,0,0,1-1.42,3.93L78.34,89.44Zm-11,68.1H8.26L45.71,93.54l11.15,9.75A3.81,3.81,0,0,0,62,103.2l10.32-8.69,36.09,28.38Z"/></svg>