<svg id="Layer_1" data-name="Layer 1" xmlns="http://www.w3.org/2000/svg" viewBox="0 0 92.27 122.88"><defs><style>.cls-1{fill:#fff;fill-rule:evenodd;}</style></defs><path class="cls-1" d="M47.49,116.85a83.73,83.73,0,0,0,16.92-14.29,86.64,86.64,0,0,0,20.87-40.2c2.88-13.91,1.52-27.54-4.85-38.06A37.13,37.13,0,0,0,73.65,16C65.91,9,57.05,5.63,48.13,5.54,38.76,5.47,29.26,9,20.86,15.68A39.5,39.5,0,0,0,12,25.46c-5.9,9.28-7.69,20.8-5.74,32.85,2,12.23,7.78,25,17,36.61a103.57,103.57,0,0,0,24.18,21.91l0,0Zm-1.36-93L22.76,46.73l5.7,3L46,31.33,63.8,49.72l5.7-3L46.13,23.84ZM29.71,51.2h0L46.16,34.75,62.56,51.2h0V67.34h-12V55.94h-9v11.4H29.71V51.2Zm38.81,55.07A89,89,0,0,1,49.1,122.33a2.75,2.75,0,0,1-3.13.11A109.83,109.83,0,0,1,19,98.35C9.15,86,2.94,72.34.83,59.16-1.33,45.8.69,33,7.34,22.48A45,45,0,0,1,17.41,11.34C26.78,3.88,37.51-.07,48.17,0,58.45.09,68.59,3.9,77.39,11.93a42.39,42.39,0,0,1,7.78,9.48c7.15,11.77,8.69,26.81,5.56,42a92.34,92.34,0,0,1-22.19,42.8l0,0Z"/></svg>