<svg id="Layer_1" data-name="Layer 1" xmlns="http://www.w3.org/2000/svg" viewBox="0 0 122.88 122.88"><defs><style>.cls-1{fill:#fff;}</style></defs><path class="cls-1" d="M109.46,89.5a2.42,2.42,0,0,1,.54.06,62.44,62.44,0,0,0,3.13-6.29l.06-.13a53.29,53.29,0,0,0,3.21-10.42,57.45,57.45,0,0,0,1-8.59h-16.9A54.45,54.45,0,0,1,92.9,89.5Zm-2.94,5.39h-17a114.33,114.33,0,0,1-20.84,22.17c1.36-.17,2.72-.39,4-.66a53.76,53.76,0,0,0,10.55-3.26h0a58.9,58.9,0,0,0,9.61-5.2,54.17,54.17,0,0,0,8.25-6.79h0a54,54,0,0,0,5.38-6.24ZM54.21,117.06A114,114,0,0,1,33.37,94.89h-17a54,54,0,0,0,5.38,6.24h0A54.17,54.17,0,0,0,30,107.93a58.9,58.9,0,0,0,9.61,5.2l.13.06a53.29,53.29,0,0,0,10.42,3.21q2,.41,4.05.66ZM12.85,89.5H30a54.55,54.55,0,0,1-7.63-25.37H5.45a56.17,56.17,0,0,0,1,8.59A53.76,53.76,0,0,0,9.74,83.27h0a61.25,61.25,0,0,0,3.1,6.23ZM5.45,58.75h17c.63-8.4,3.41-16.86,8.41-25.37h-18a61.25,61.25,0,0,0-3.1,6.23l-.06.13A53.29,53.29,0,0,0,6.48,50.16a55,55,0,0,0-1,8.59ZM16.36,28H34.3A126.23,126.23,0,0,1,54.59,5.78c-1.5.17-3,.41-4.43.7A53.76,53.76,0,0,0,39.61,9.74h0A58.9,58.9,0,0,0,30,15a54.17,54.17,0,0,0-8.25,6.79h0A54,54,0,0,0,16.36,28ZM68.29,5.78A126.23,126.23,0,0,1,88.58,28h17.94a55,55,0,0,0-5.38-6.24h0A54.17,54.17,0,0,0,92.88,15a58.9,58.9,0,0,0-9.61-5.2l-.13-.06A53.29,53.29,0,0,0,72.72,6.48c-1.46-.29-2.93-.53-4.43-.7ZM110,33.38H92c5,8.51,7.78,17,8.41,25.37h17a56.17,56.17,0,0,0-1-8.59,53.76,53.76,0,0,0-3.26-10.55h0a61.25,61.25,0,0,0-3.1-6.23ZM49.11,1.2a63.95,63.95,0,0,1,24.66,0A59.53,59.53,0,0,1,85.25,4.74l.14.06a64.33,64.33,0,0,1,10.47,5.69A60.72,60.72,0,0,1,112.39,27a64.85,64.85,0,0,1,5.69,10.48h0a59.13,59.13,0,0,1,3.6,11.61,64,64,0,0,1,0,24.67,59,59,0,0,1-3.55,11.47.58.58,0,0,1,0,.14,64.85,64.85,0,0,1-5.69,10.48,60.72,60.72,0,0,1-16.53,16.52,64.33,64.33,0,0,1-10.47,5.69h0a58.87,58.87,0,0,1-11.61,3.6,63.95,63.95,0,0,1-24.66,0,59.53,59.53,0,0,1-11.48-3.54l-.15-.06A65.18,65.18,0,0,1,27,112.39,60.87,60.87,0,0,1,10.49,95.87,64.85,64.85,0,0,1,4.8,85.39h0A58.87,58.87,0,0,1,1.2,73.77a64,64,0,0,1,0-24.67A59.65,59.65,0,0,1,4.74,37.63l.06-.14A64.85,64.85,0,0,1,10.49,27,60.87,60.87,0,0,1,27,10.49,64.85,64.85,0,0,1,37.49,4.8h0A59.43,59.43,0,0,1,49.11,1.2Zm15,8.07V28H82A127.83,127.83,0,0,0,64.13,9.27Zm0,24.11V58.75H95.06Q94,46.26,85.74,33.38Zm0,30.75V89.5H86.64q8-12.59,8.53-25.37Zm0,30.76v19a115.79,115.79,0,0,0,18.75-19Zm-5.38,19v-19H40a115.79,115.79,0,0,0,18.75,19Zm0-24.34V64.13h-31q.51,12.78,8.53,25.37Zm0-30.75V33.38H37.14q-8.3,12.87-9.32,25.37Zm0-30.76V9.27A127.83,127.83,0,0,0,40.92,28Z"/></svg>